<svg xmlns="http://www.w3.org/2000/svg" width="77.897" height="82.515" viewBox="0 0 77.897 82.515"><defs><style>.a{fill:#8955f7;}.b{fill:#fff;}</style></defs><g transform="translate(1084.536 -166.35)"><path class="a" d="M-1008.2,201.386a54.754,54.754,0,0,0-12.706-14.242,109.775,109.775,0,0,0-24.209-14.985c-5.668-2.572-11.394-4.878-17.651-5.649-7.746-.955-14.525,2.332-17.177,10.063a52.8,52.8,0,0,0-2.19,9.065c-.9,5.84-1.724,11.7-2.2,17.59a123.332,123.332,0,0,0-.056,12.756,52.063,52.063,0,0,0,4.956,21.532c3.571,7.47,9.43,11.376,16.32,11.348,9.9-.132,17.4-3.261,24.606-7.158a81.791,81.791,0,0,0,13.238-9.042c6.875-5.693,13.153-11.9,17.17-19.99C-1006.283,209-1005.987,205.105-1008.2,201.386Z"/><path class="b" d="M-1039.079,228.381a3.992,3.992,0,0,0-.925-1.037,8.011,8.011,0,0,0-1.762-1.091,4.441,4.441,0,0,0-1.285-.411,1.092,1.092,0,0,0-1.25.732,3.793,3.793,0,0,0-.16.66c-.066.425-.125.852-.16,1.28a8.822,8.822,0,0,0,0,.929,3.779,3.779,0,0,0,.361,1.568,1.3,1.3,0,0,0,1.188.826,3.7,3.7,0,0,0,1.791-.521,5.954,5.954,0,0,0,.963-.658,4.561,4.561,0,0,0,1.25-1.455A.82.82,0,0,0-1039.079,228.381Z" transform="translate(-17.157 -25.576)"/><path class="b" d="M-1002.222,225.451a4.4,4.4,0,0,0-1.019-1.142,8.787,8.787,0,0,0-1.941-1.2,4.88,4.88,0,0,0-1.415-.453,1.2,1.2,0,0,0-1.377.807,4.23,4.23,0,0,0-.176.727c-.072.468-.138.938-.177,1.41a9.885,9.885,0,0,0,0,1.023,4.171,4.171,0,0,0,.4,1.727,1.428,1.428,0,0,0,1.308.91,4.076,4.076,0,0,0,1.973-.574,6.587,6.587,0,0,0,1.061-.724,5.033,5.033,0,0,0,1.377-1.6A.9.9,0,0,0-1002.222,225.451Z" transform="translate(-32.763 -24.205)"/><path class="b" d="M-1038.3,215.77c-1.748-3.348-7.114-3.679-10.624-2.3a10.752,10.752,0,0,0-5.329,5.044c-.5.878-3.456,6.027-.947,10.994a10.5,10.5,0,0,0,4.73,4.557l3.112-4.742c-.127.026-.254.053-.383.068-2.944.352-4.935-2.214-4.464-5.717s3.208-6.62,6.136-7.009c2.946-.39,4.982,2.138,4.53,5.663a7.757,7.757,0,0,1-.462,1.866c-1.667,3.88-11.646,18.7-12.632,20.161l5.32-.422c4.1-5.97,7.071-10.849,9.052-14.271a19.894,19.894,0,0,0,2.518-6.018C-1037.543,222.707-1036.708,218.821-1038.3,215.77Z" transform="translate(-12.184 -19.933)"/><path class="b" d="M-1002.252,212.42c-1.818-3.481-7.4-3.826-11.048-2.393a11.178,11.178,0,0,0-5.542,5.245c-.524.913-3.594,6.268-.986,11.433a10.922,10.922,0,0,0,4.919,4.739l3.236-4.931c-.132.027-.264.055-.4.071-3.062.366-5.131-2.3-4.641-5.945s3.336-6.884,6.381-7.288c3.063-.406,5.181,2.223,4.71,5.889a8.078,8.078,0,0,1-.481,1.94c-1.733,4.035-12.11,19.443-13.135,20.964l5.532-.439c4.265-6.207,7.352-11.282,9.413-14.839a20.7,20.7,0,0,0,2.618-6.258C-1001.463,219.634-1000.595,215.592-1002.252,212.42Z" transform="translate(-27.378 -18.44)"/></g></svg>